<?xml version="1.0" encoding="UTF-8" standalone="no"?>
<!DOCTYPE svg PUBLIC "-//W3C//DTD SVG 1.1//EN"
 "http://www.w3.org/Graphics/SVG/1.1/DTD/svg11.dtd">
<!-- Generated by graphviz version 8.0.3 (20230418.1244)
 -->
<!-- Title: snakemake_dag Pages: 1 -->
<svg width="1304pt" height="404pt"
 viewBox="0.00 0.00 1303.50 404.00" xmlns="http://www.w3.org/2000/svg" xmlns:xlink="http://www.w3.org/1999/xlink">
<g id="graph0" class="graph" transform="scale(1 1) rotate(0) translate(4 400)">
<title>snakemake_dag</title>
<polygon fill="white" stroke="none" points="-4,4 -4,-400 1299.5,-400 1299.5,4 -4,4"/>
<!-- 0 -->
<g id="node1" class="node">
<title>0</title>
<path fill="none" stroke="#56d87b" stroke-width="2" d="M1023,-36C1023,-36 993,-36 993,-36 987,-36 981,-30 981,-24 981,-24 981,-12 981,-12 981,-6 987,0 993,0 993,0 1023,0 1023,0 1029,0 1035,-6 1035,-12 1035,-12 1035,-24 1035,-24 1035,-30 1029,-36 1023,-36"/>
<text text-anchor="middle" x="1008" y="-15.5" font-family="sans" font-size="10.00">all</text>
</g>
<!-- 1 -->
<g id="node2" class="node">
<title>1</title>
<path fill="none" stroke="#56d8d8" stroke-width="2" d="M362,-108C362,-108 294,-108 294,-108 288,-108 282,-102 282,-96 282,-96 282,-84 282,-84 282,-78 288,-72 294,-72 294,-72 362,-72 362,-72 368,-72 374,-78 374,-84 374,-84 374,-96 374,-96 374,-102 368,-108 362,-108"/>
<text text-anchor="middle" x="328" y="-87.5" font-family="sans" font-size="10.00">check_samples</text>
</g>
<!-- 1&#45;&gt;0 -->
<g id="edge5" class="edge">
<title>1&#45;&gt;0</title>
<path fill="none" stroke="grey" stroke-width="2" d="M374.94,-73.76C377.65,-73.11 380.35,-72.52 383,-72 600.67,-29.64 867.52,-21.14 967.58,-19.43"/>
<polygon fill="grey" stroke="grey" stroke-width="2" points="967.35,-22.89 977.29,-19.23 967.24,-15.89 967.35,-22.89"/>
</g>
<!-- 2 -->
<g id="node3" class="node">
<title>2</title>
<path fill="none" stroke="#d6d856" stroke-width="2" d="M984,-252C984,-252 914,-252 914,-252 908,-252 902,-246 902,-240 902,-240 902,-228 902,-228 902,-222 908,-216 914,-216 914,-216 984,-216 984,-216 990,-216 996,-222 996,-228 996,-228 996,-240 996,-240 996,-246 990,-252 984,-252"/>
<text text-anchor="middle" x="949" y="-231.5" font-family="sans" font-size="10.00">samtools_index</text>
</g>
<!-- 2&#45;&gt;0 -->
<g id="edge7" class="edge">
<title>2&#45;&gt;0</title>
<path fill="none" stroke="grey" stroke-width="2" d="M966.1,-215.36C974.43,-205.7 983.76,-193.05 989,-180 1006.26,-137.04 1009.18,-82.81 1009.07,-49.54"/>
<polygon fill="grey" stroke="grey" stroke-width="2" points="1012.52,-49.59 1008.87,-39.65 1005.52,-49.7 1012.52,-49.59"/>
</g>
<!-- 20 -->
<g id="node21" class="node">
<title>20</title>
<path fill="none" stroke="#b6d856" stroke-width="2" d="M967.5,-180C967.5,-180 860.5,-180 860.5,-180 854.5,-180 848.5,-174 848.5,-168 848.5,-168 848.5,-156 848.5,-156 848.5,-150 854.5,-144 860.5,-144 860.5,-144 967.5,-144 967.5,-144 973.5,-144 979.5,-150 979.5,-156 979.5,-156 979.5,-168 979.5,-168 979.5,-174 973.5,-180 967.5,-180"/>
<text text-anchor="middle" x="914" y="-159.5" font-family="sans" font-size="10.00">run_draw_arriba_fusion</text>
</g>
<!-- 2&#45;&gt;20 -->
<g id="edge40" class="edge">
<title>2&#45;&gt;20</title>
<path fill="none" stroke="grey" stroke-width="2" d="M940.17,-215.34C936.67,-208.34 932.56,-200.12 928.64,-192.28"/>
<polygon fill="grey" stroke="grey" stroke-width="2" points="931.55,-190.28 923.95,-182.9 925.29,-193.41 931.55,-190.28"/>
</g>
<!-- 3 -->
<g id="node4" class="node">
<title>3</title>
<path fill="none" stroke="#56d8a9" stroke-width="2" d="M890.5,-396C890.5,-396 819.5,-396 819.5,-396 813.5,-396 807.5,-390 807.5,-384 807.5,-384 807.5,-372 807.5,-372 807.5,-366 813.5,-360 819.5,-360 819.5,-360 890.5,-360 890.5,-360 896.5,-360 902.5,-366 902.5,-372 902.5,-372 902.5,-384 902.5,-384 902.5,-390 896.5,-396 890.5,-396"/>
<text text-anchor="middle" x="855" y="-375.5" font-family="sans" font-size="10.00">run_star_aligner</text>
</g>
<!-- 3&#45;&gt;0 -->
<g id="edge2" class="edge">
<title>3&#45;&gt;0</title>
<path fill="none" stroke="grey" stroke-width="2" d="M903.25,-373.77C982.61,-365.56 1132,-336.6 1132,-235 1132,-235 1132,-235 1132,-161 1132,-108.35 1083.04,-65.8 1046.65,-41.45"/>
<polygon fill="grey" stroke="grey" stroke-width="2" points="1048.13,-37.95 1037.83,-35.48 1044.34,-43.84 1048.13,-37.95"/>
</g>
<!-- 3&#45;&gt;2 -->
<g id="edge8" class="edge">
<title>3&#45;&gt;2</title>
<path fill="none" stroke="grey" stroke-width="2" d="M866.91,-359.02C882.87,-334.9 911.38,-291.83 930.24,-263.34"/>
<polygon fill="grey" stroke="grey" stroke-width="2" points="933.59,-265.11 936.19,-254.84 927.75,-261.24 933.59,-265.11"/>
</g>
<!-- 4 -->
<g id="node5" class="node">
<title>4</title>
<path fill="none" stroke="#d8cb56" stroke-width="2" d="M1283.5,-108C1283.5,-108 1172.5,-108 1172.5,-108 1166.5,-108 1160.5,-102 1160.5,-96 1160.5,-96 1160.5,-84 1160.5,-84 1160.5,-78 1166.5,-72 1172.5,-72 1172.5,-72 1283.5,-72 1283.5,-72 1289.5,-72 1295.5,-78 1295.5,-84 1295.5,-84 1295.5,-96 1295.5,-96 1295.5,-102 1289.5,-108 1283.5,-108"/>
<text text-anchor="middle" x="1228" y="-87.5" font-family="sans" font-size="10.00">calculate_tpm_and_cpm</text>
</g>
<!-- 3&#45;&gt;4 -->
<g id="edge9" class="edge">
<title>3&#45;&gt;4</title>
<path fill="none" stroke="grey" stroke-width="2" d="M903.47,-373.99C976.55,-368.51 1110.2,-354.54 1146,-324 1206.84,-272.1 1222.55,-172.19 1226.6,-121.74"/>
<polygon fill="grey" stroke="grey" stroke-width="2" points="1230.29,-122.12 1227.46,-111.91 1223.3,-121.65 1230.29,-122.12"/>
</g>
<!-- 5 -->
<g id="node6" class="node">
<title>5</title>
<path fill="none" stroke="#d86656" stroke-width="2" d="M1092,-180C1092,-180 1048,-180 1048,-180 1042,-180 1036,-174 1036,-168 1036,-168 1036,-156 1036,-156 1036,-150 1042,-144 1048,-144 1048,-144 1092,-144 1092,-144 1098,-144 1104,-150 1104,-156 1104,-156 1104,-168 1104,-168 1104,-174 1098,-180 1092,-180"/>
<text text-anchor="middle" x="1070" y="-159.5" font-family="sans" font-size="10.00">pysamstat</text>
</g>
<!-- 3&#45;&gt;5 -->
<g id="edge10" class="edge">
<title>3&#45;&gt;5</title>
<path fill="none" stroke="grey" stroke-width="2" d="M879.97,-359.19C911.11,-336.33 965.11,-294.53 1005,-252 1022.59,-233.25 1039.62,-209.67 1051.83,-191.49"/>
<polygon fill="grey" stroke="grey" stroke-width="2" points="1055.36,-192.97 1057.95,-182.7 1049.52,-189.12 1055.36,-192.97"/>
</g>
<!-- 6 -->
<g id="node7" class="node">
<title>6</title>
<path fill="none" stroke="#d89556" stroke-width="2" d="M483.5,-108C483.5,-108 404.5,-108 404.5,-108 398.5,-108 392.5,-102 392.5,-96 392.5,-96 392.5,-84 392.5,-84 392.5,-78 398.5,-72 404.5,-72 404.5,-72 483.5,-72 483.5,-72 489.5,-72 495.5,-78 495.5,-84 495.5,-84 495.5,-96 495.5,-96 495.5,-102 489.5,-108 483.5,-108"/>
<text text-anchor="middle" x="444" y="-87.5" font-family="sans" font-size="10.00">aggregate_output</text>
</g>
<!-- 3&#45;&gt;6 -->
<g id="edge13" class="edge">
<title>3&#45;&gt;6</title>
<path fill="none" stroke="grey" stroke-width="2" d="M806.86,-375.83C690.84,-372.45 398.78,-360.46 309,-324 261.54,-304.73 241.19,-298.17 219,-252 198.21,-208.74 188.92,-181.4 219,-144 263.3,-88.92 305.85,-122.06 379.26,-108.48"/>
<polygon fill="grey" stroke="grey" stroke-width="2" points="380.78,-111.29 389.81,-105.75 379.29,-104.45 380.78,-111.29"/>
</g>
<!-- 8 -->
<g id="node9" class="node">
<title>8</title>
<path fill="none" stroke="#d87556" stroke-width="2" d="M723.5,-324C723.5,-324 558.5,-324 558.5,-324 552.5,-324 546.5,-318 546.5,-312 546.5,-312 546.5,-300 546.5,-300 546.5,-294 552.5,-288 558.5,-288 558.5,-288 723.5,-288 723.5,-288 729.5,-288 735.5,-294 735.5,-300 735.5,-300 735.5,-312 735.5,-312 735.5,-318 729.5,-324 723.5,-324"/>
<text text-anchor="middle" x="641" y="-303.5" font-family="sans" font-size="10.00">process_reads_per_gene_to_counts</text>
</g>
<!-- 3&#45;&gt;8 -->
<g id="edge19" class="edge">
<title>3&#45;&gt;8</title>
<path fill="none" stroke="grey" stroke-width="2" d="M806.71,-361.2C777.52,-351.66 739.9,-339.35 707.88,-328.88"/>
<polygon fill="grey" stroke="grey" stroke-width="2" points="708.5,-324.74 697.91,-324.96 706.32,-331.4 708.5,-324.74"/>
</g>
<!-- 10 -->
<g id="node11" class="node">
<title>10</title>
<path fill="none" stroke="#56c9d8" stroke-width="2" d="M796,-252C796,-252 754,-252 754,-252 748,-252 742,-246 742,-240 742,-240 742,-228 742,-228 742,-222 748,-216 754,-216 754,-216 796,-216 796,-216 802,-216 808,-222 808,-228 808,-228 808,-240 808,-240 808,-246 802,-252 796,-252"/>
<text text-anchor="middle" x="775" y="-231.5" font-family="sans" font-size="10.00">run_arriba</text>
</g>
<!-- 3&#45;&gt;10 -->
<g id="edge20" class="edge">
<title>3&#45;&gt;10</title>
<path fill="none" stroke="grey" stroke-width="2" d="M843.38,-359.04C836.9,-348.87 828.8,-335.84 822,-324 810.74,-304.4 798.86,-281.88 789.86,-264.4"/>
<polygon fill="grey" stroke="grey" stroke-width="2" points="792.67,-262.24 785,-254.93 786.43,-265.43 792.67,-262.24"/>
</g>
<!-- 12 -->
<g id="node13" class="node">
<title>12</title>
<path fill="none" stroke="#56b9d8" stroke-width="2" d="M443.5,-324C443.5,-324 330.5,-324 330.5,-324 324.5,-324 318.5,-318 318.5,-312 318.5,-312 318.5,-300 318.5,-300 318.5,-294 324.5,-288 330.5,-288 330.5,-288 443.5,-288 443.5,-288 449.5,-288 455.5,-294 455.5,-300 455.5,-300 455.5,-312 455.5,-312 455.5,-318 449.5,-324 443.5,-324"/>
<text text-anchor="middle" x="387" y="-303.5" font-family="sans" font-size="10.00">process_reads_per_gene</text>
</g>
<!-- 3&#45;&gt;12 -->
<g id="edge23" class="edge">
<title>3&#45;&gt;12</title>
<path fill="none" stroke="grey" stroke-width="2" d="M806.68,-369.77C726.89,-357.84 566.7,-333.88 468.95,-319.26"/>
<polygon fill="grey" stroke="grey" stroke-width="2" points="468.58,-315.36 458.18,-317.35 467.55,-322.29 468.58,-315.36"/>
</g>
<!-- 19 -->
<g id="node20" class="node">
<title>19</title>
<path fill="none" stroke="#68d856" stroke-width="2" d="M784,-108C784,-108 704,-108 704,-108 698,-108 692,-102 692,-96 692,-96 692,-84 692,-84 692,-78 698,-72 704,-72 704,-72 784,-72 784,-72 790,-72 796,-78 796,-84 796,-84 796,-96 796,-96 796,-102 790,-108 784,-108"/>
<text text-anchor="middle" x="744" y="-87.5" font-family="sans" font-size="10.00">interactive_report</text>
</g>
<!-- 3&#45;&gt;19 -->
<g id="edge34" class="edge">
<title>3&#45;&gt;19</title>
<path fill="none" stroke="grey" stroke-width="2" d="M852.49,-359.11C847.87,-328.85 836.66,-265.98 817,-216 803.52,-181.73 794.63,-175.76 776,-144 771.32,-136.03 766.18,-127.43 761.41,-119.53"/>
<polygon fill="grey" stroke="grey" stroke-width="2" points="763.96,-117.34 755.78,-110.6 757.97,-120.96 763.96,-117.34"/>
</g>
<!-- 3&#45;&gt;20 -->
<g id="edge42" class="edge">
<title>3&#45;&gt;20</title>
<path fill="none" stroke="grey" stroke-width="2" d="M858.28,-359.38C864.04,-329.53 876.9,-267.23 893,-216 895.4,-208.38 898.37,-200.29 901.32,-192.8"/>
<polygon fill="grey" stroke="grey" stroke-width="2" points="904.62,-193.5 905.15,-182.92 898.14,-190.86 904.62,-193.5"/>
</g>
<!-- 4&#45;&gt;0 -->
<g id="edge6" class="edge">
<title>4&#45;&gt;0</title>
<path fill="none" stroke="grey" stroke-width="2" d="M1171.63,-71.06C1132.85,-58.73 1082.3,-42.64 1047.71,-31.63"/>
<polygon fill="grey" stroke="grey" stroke-width="2" points="1048.33,-27.52 1037.74,-27.83 1046.21,-34.19 1048.33,-27.52"/>
</g>
<!-- 5&#45;&gt;0 -->
<g id="edge1" class="edge">
<title>5&#45;&gt;0</title>
<path fill="none" stroke="grey" stroke-width="2" d="M1062.15,-143.02C1051.76,-119.22 1033.31,-76.97 1020.87,-48.48"/>
<polygon fill="grey" stroke="grey" stroke-width="2" points="1024,-46.6 1016.79,-38.84 1017.58,-49.4 1024,-46.6"/>
</g>
<!-- 5&#45;&gt;19 -->
<g id="edge32" class="edge">
<title>5&#45;&gt;19</title>
<path fill="none" stroke="grey" stroke-width="2" d="M1035.11,-153.51C981.41,-141.98 877.6,-119.69 809.56,-105.08"/>
<polygon fill="grey" stroke="grey" stroke-width="2" points="809.39,-101.03 798.88,-102.35 807.92,-107.88 809.39,-101.03"/>
</g>
<!-- 6&#45;&gt;0 -->
<g id="edge4" class="edge">
<title>6&#45;&gt;0</title>
<path fill="none" stroke="grey" stroke-width="2" d="M496.3,-82.51C607.78,-68.67 866.8,-36.53 967.2,-24.06"/>
<polygon fill="grey" stroke="grey" stroke-width="2" points="967.52,-27.18 977.01,-22.47 966.66,-20.23 967.52,-27.18"/>
</g>
<!-- 7 -->
<g id="node8" class="node">
<title>7</title>
<path fill="none" stroke="#56d8b9" stroke-width="2" d="M711.5,-252C711.5,-252 546.5,-252 546.5,-252 540.5,-252 534.5,-246 534.5,-240 534.5,-240 534.5,-228 534.5,-228 534.5,-222 540.5,-216 546.5,-216 546.5,-216 711.5,-216 711.5,-216 717.5,-216 723.5,-222 723.5,-228 723.5,-228 723.5,-240 723.5,-240 723.5,-246 717.5,-252 711.5,-252"/>
<text text-anchor="middle" x="629" y="-231.5" font-family="sans" font-size="10.00">run_allcatchr_on_single_count_files</text>
</g>
<!-- 7&#45;&gt;6 -->
<g id="edge14" class="edge">
<title>7&#45;&gt;6</title>
<path fill="none" stroke="grey" stroke-width="2" d="M564.55,-215.02C542.77,-206.79 519.35,-195.36 501,-180 481.72,-163.87 466.76,-139.51 457,-120.36"/>
<polygon fill="grey" stroke="grey" stroke-width="2" points="459.86,-118.14 452.36,-110.66 453.55,-121.19 459.86,-118.14"/>
</g>
<!-- 18 -->
<g id="node19" class="node">
<title>18</title>
<path fill="none" stroke="#569ad8" stroke-width="2" d="M665.5,-180C665.5,-180 522.5,-180 522.5,-180 516.5,-180 510.5,-174 510.5,-168 510.5,-168 510.5,-156 510.5,-156 510.5,-150 516.5,-144 522.5,-144 522.5,-144 665.5,-144 665.5,-144 671.5,-144 677.5,-150 677.5,-156 677.5,-156 677.5,-168 677.5,-168 677.5,-174 671.5,-180 665.5,-180"/>
<text text-anchor="middle" x="594" y="-159.5" font-family="sans" font-size="10.00">check_subtype_and_karyotype</text>
</g>
<!-- 7&#45;&gt;18 -->
<g id="edge27" class="edge">
<title>7&#45;&gt;18</title>
<path fill="none" stroke="grey" stroke-width="2" d="M620.17,-215.34C616.67,-208.34 612.56,-200.12 608.64,-192.28"/>
<polygon fill="grey" stroke="grey" stroke-width="2" points="611.55,-190.28 603.95,-182.9 605.29,-193.41 611.55,-190.28"/>
</g>
<!-- 7&#45;&gt;19 -->
<g id="edge35" class="edge">
<title>7&#45;&gt;19</title>
<path fill="none" stroke="grey" stroke-width="2" d="M650.78,-215.01C661.94,-205.24 675.38,-192.61 686,-180 701.78,-161.25 716.81,-137.98 727.61,-119.94"/>
<polygon fill="grey" stroke="grey" stroke-width="2" points="731.02,-121.34 733.06,-110.94 724.99,-117.79 731.02,-121.34"/>
</g>
<!-- 8&#45;&gt;7 -->
<g id="edge18" class="edge">
<title>8&#45;&gt;7</title>
<path fill="none" stroke="grey" stroke-width="2" d="M637.97,-287.34C636.84,-280.75 635.53,-273.08 634.26,-265.67"/>
<polygon fill="grey" stroke="grey" stroke-width="2" points="637.21,-264.17 632.07,-254.9 630.31,-265.35 637.21,-264.17"/>
</g>
<!-- 9 -->
<g id="node10" class="node">
<title>9</title>
<path fill="none" stroke="#568ad8" stroke-width="2" d="M504,-252C504,-252 424,-252 424,-252 418,-252 412,-246 412,-240 412,-240 412,-228 412,-228 412,-222 418,-216 424,-216 424,-216 504,-216 504,-216 510,-216 516,-222 516,-228 516,-228 516,-240 516,-240 516,-246 510,-252 504,-252"/>
<text text-anchor="middle" x="464" y="-231.5" font-family="sans" font-size="10.00">run_fusioncatcher</text>
</g>
<!-- 9&#45;&gt;6 -->
<g id="edge12" class="edge">
<title>9&#45;&gt;6</title>
<path fill="none" stroke="grey" stroke-width="2" d="M448.89,-215.16C441.65,-205.44 433.75,-192.8 430,-180 424.35,-160.74 427.88,-138.43 432.81,-120.97"/>
<polygon fill="grey" stroke="grey" stroke-width="2" points="437.02,-121.28 436.72,-110.69 430.35,-119.16 437.02,-121.28"/>
</g>
<!-- 9&#45;&gt;18 -->
<g id="edge29" class="edge">
<title>9&#45;&gt;18</title>
<path fill="none" stroke="grey" stroke-width="2" d="M497.14,-215.15C513.19,-206.52 532.67,-196.02 549.95,-186.72"/>
<polygon fill="grey" stroke="grey" stroke-width="2" points="551.77,-189.64 558.92,-181.81 548.46,-183.47 551.77,-189.64"/>
</g>
<!-- 9&#45;&gt;19 -->
<g id="edge33" class="edge">
<title>9&#45;&gt;19</title>
<path fill="none" stroke="grey" stroke-width="2" d="M466.46,-215.07C470.23,-194.72 479.42,-162.02 501,-144 527.55,-121.83 616.04,-106.65 678.55,-98.4"/>
<polygon fill="grey" stroke="grey" stroke-width="2" points="678.59,-101.53 688.07,-96.79 677.7,-94.59 678.59,-101.53"/>
</g>
<!-- 10&#45;&gt;6 -->
<g id="edge15" class="edge">
<title>10&#45;&gt;6</title>
<path fill="none" stroke="grey" stroke-width="2" d="M762.38,-215.29C746.81,-194.83 718.4,-161.72 686,-144 630.81,-113.81 559.68,-100.82 508.85,-95.23"/>
<polygon fill="grey" stroke="grey" stroke-width="2" points="509.36,-91.46 499.06,-93.93 508.66,-98.42 509.36,-91.46"/>
</g>
<!-- 10&#45;&gt;18 -->
<g id="edge30" class="edge">
<title>10&#45;&gt;18</title>
<path fill="none" stroke="grey" stroke-width="2" d="M741.21,-219.61C738.1,-218.38 734.99,-217.17 732,-216 706.12,-205.92 677.46,-194.89 653,-185.51"/>
<polygon fill="grey" stroke="grey" stroke-width="2" points="653.58,-182.22 642.99,-181.92 651.08,-188.76 653.58,-182.22"/>
</g>
<!-- 10&#45;&gt;19 -->
<g id="edge36" class="edge">
<title>10&#45;&gt;19</title>
<path fill="none" stroke="grey" stroke-width="2" d="M771.97,-215.19C768.82,-197.17 763.58,-168.54 758,-144 756.29,-136.48 754.26,-128.42 752.29,-120.9"/>
<polygon fill="grey" stroke="grey" stroke-width="2" points="754.95,-119.34 748.98,-110.59 748.19,-121.16 754.95,-119.34"/>
</g>
<!-- 10&#45;&gt;20 -->
<g id="edge41" class="edge">
<title>10&#45;&gt;20</title>
<path fill="none" stroke="grey" stroke-width="2" d="M808.65,-216.05C826.21,-207.21 847.99,-196.24 867.17,-186.58"/>
<polygon fill="grey" stroke="grey" stroke-width="2" points="869.37,-189.39 876.72,-181.77 866.22,-183.14 869.37,-189.39"/>
</g>
<!-- 11 -->
<g id="node12" class="node">
<title>11</title>
<path fill="none" stroke="#56d88a" stroke-width="2" d="M381.5,-252C381.5,-252 312.5,-252 312.5,-252 306.5,-252 300.5,-246 300.5,-240 300.5,-240 300.5,-228 300.5,-228 300.5,-222 306.5,-216 312.5,-216 312.5,-216 381.5,-216 381.5,-216 387.5,-216 393.5,-222 393.5,-228 393.5,-228 393.5,-240 393.5,-240 393.5,-246 387.5,-252 381.5,-252"/>
<text text-anchor="middle" x="347" y="-231.5" font-family="sans" font-size="10.00">run_rnaseq_cnv</text>
</g>
<!-- 11&#45;&gt;6 -->
<g id="edge17" class="edge">
<title>11&#45;&gt;6</title>
<path fill="none" stroke="grey" stroke-width="2" d="M343.84,-215.13C341.45,-196.02 340.53,-165.56 354,-144 361.36,-132.23 372.36,-122.76 384.18,-115.26"/>
<polygon fill="grey" stroke="grey" stroke-width="2" points="386.26,-117.95 393.18,-109.93 382.76,-111.89 386.26,-117.95"/>
</g>
<!-- 11&#45;&gt;18 -->
<g id="edge28" class="edge">
<title>11&#45;&gt;18</title>
<path fill="none" stroke="grey" stroke-width="2" d="M394.33,-218.54C397.26,-217.68 400.17,-216.82 403,-216 439.94,-205.27 481.03,-193.81 515.61,-184.3"/>
<polygon fill="grey" stroke="grey" stroke-width="2" points="517.32,-186.91 526.03,-180.88 515.46,-180.16 517.32,-186.91"/>
</g>
<!-- 11&#45;&gt;19 -->
<g id="edge39" class="edge">
<title>11&#45;&gt;19</title>
<path fill="none" stroke="grey" stroke-width="2" d="M366.53,-215.33C390.2,-194.9 432.14,-161.83 474,-144 540.36,-115.74 622.37,-102.38 678.48,-96.17"/>
<polygon fill="grey" stroke="grey" stroke-width="2" points="678.52,-99.37 688.1,-94.85 677.79,-92.41 678.52,-99.37"/>
</g>
<!-- 12&#45;&gt;11 -->
<g id="edge22" class="edge">
<title>12&#45;&gt;11</title>
<path fill="none" stroke="grey" stroke-width="2" d="M376.91,-287.34C372.86,-280.26 368.1,-271.92 363.57,-264"/>
<polygon fill="grey" stroke="grey" stroke-width="2" points="366.23,-261.85 358.23,-254.9 360.15,-265.32 366.23,-261.85"/>
</g>
<!-- 13 -->
<g id="node14" class="node">
<title>13</title>
<path fill="none" stroke="#5663d8" stroke-width="2" d="M160,-324C160,-324 84,-324 84,-324 78,-324 72,-318 72,-312 72,-312 72,-300 72,-300 72,-294 78,-288 84,-288 84,-288 160,-288 160,-288 166,-288 172,-294 172,-300 172,-300 172,-312 172,-312 172,-318 166,-324 160,-324"/>
<text text-anchor="middle" x="122" y="-303.5" font-family="sans" font-size="10.00">prepare_vcf_files</text>
</g>
<!-- 13&#45;&gt;11 -->
<g id="edge21" class="edge">
<title>13&#45;&gt;11</title>
<path fill="none" stroke="grey" stroke-width="2" d="M172.77,-289.2C206.86,-278.6 251.9,-264.59 287.64,-253.47"/>
<polygon fill="grey" stroke="grey" stroke-width="2" points="289.36,-255.98 297.87,-249.66 287.28,-249.29 289.36,-255.98"/>
</g>
<!-- 14 -->
<g id="node15" class="node">
<title>14</title>
<path fill="none" stroke="#59d856" stroke-width="2" d="M165.5,-396C165.5,-396 78.5,-396 78.5,-396 72.5,-396 66.5,-390 66.5,-384 66.5,-384 66.5,-372 66.5,-372 66.5,-366 72.5,-360 78.5,-360 78.5,-360 165.5,-360 165.5,-360 171.5,-360 177.5,-366 177.5,-372 177.5,-372 177.5,-384 177.5,-384 177.5,-390 171.5,-396 165.5,-396"/>
<text text-anchor="middle" x="122" y="-375.5" font-family="sans" font-size="10.00">run_ctat_mutations</text>
</g>
<!-- 14&#45;&gt;13 -->
<g id="edge24" class="edge">
<title>14&#45;&gt;13</title>
<path fill="none" stroke="grey" stroke-width="2" d="M122,-359.34C122,-352.75 122,-345.08 122,-337.67"/>
<polygon fill="grey" stroke="grey" stroke-width="2" points="125.5,-337.9 122,-327.9 118.5,-337.9 125.5,-337.9"/>
</g>
<!-- 15 -->
<g id="node16" class="node">
<title>15</title>
<path fill="none" stroke="#567bd8" stroke-width="2" d="M290,-180C290,-180 240,-180 240,-180 234,-180 228,-174 228,-168 228,-168 228,-156 228,-156 228,-150 234,-144 240,-144 240,-144 290,-144 290,-144 296,-144 302,-150 302,-156 302,-156 302,-168 302,-168 302,-174 296,-180 290,-180"/>
<text text-anchor="middle" x="265" y="-159.5" font-family="sans" font-size="10.00">multiqc_file</text>
</g>
<!-- 15&#45;&gt;6 -->
<g id="edge16" class="edge">
<title>15&#45;&gt;6</title>
<path fill="none" stroke="grey" stroke-width="2" d="M302.96,-146.15C327.19,-136.68 359.06,-124.22 386.37,-113.54"/>
<polygon fill="grey" stroke="grey" stroke-width="2" points="388.12,-116.83 396.16,-109.93 385.57,-110.31 388.12,-116.83"/>
</g>
<!-- 15&#45;&gt;19 -->
<g id="edge37" class="edge">
<title>15&#45;&gt;19</title>
<path fill="none" stroke="grey" stroke-width="2" d="M302.6,-153.36C318.43,-150.26 337.08,-146.76 354,-144 467.87,-125.4 601.19,-108.28 678.77,-98.78"/>
<polygon fill="grey" stroke="grey" stroke-width="2" points="678.69,-101.95 688.19,-97.26 677.84,-95 678.69,-101.95"/>
</g>
<!-- 16 -->
<g id="node17" class="node">
<title>16</title>
<path fill="none" stroke="#d85656" stroke-width="2" d="M270,-252C270,-252 240,-252 240,-252 234,-252 228,-246 228,-240 228,-240 228,-228 228,-228 228,-222 234,-216 240,-216 240,-216 270,-216 270,-216 276,-216 282,-222 282,-228 282,-228 282,-240 282,-240 282,-246 276,-252 270,-252"/>
<text text-anchor="middle" x="255" y="-231.5" font-family="sans" font-size="10.00">unzip</text>
</g>
<!-- 16&#45;&gt;15 -->
<g id="edge25" class="edge">
<title>16&#45;&gt;15</title>
<path fill="none" stroke="grey" stroke-width="2" d="M257.52,-215.34C258.46,-208.75 259.56,-201.08 260.62,-193.67"/>
<polygon fill="grey" stroke="grey" stroke-width="2" points="264.49,-193.3 262.44,-182.9 257.56,-192.31 264.49,-193.3"/>
</g>
<!-- 17 -->
<g id="node18" class="node">
<title>17</title>
<path fill="none" stroke="#97d856" stroke-width="2" d="M42,-324C42,-324 12,-324 12,-324 6,-324 0,-318 0,-312 0,-312 0,-300 0,-300 0,-294 6,-288 12,-288 12,-288 42,-288 42,-288 48,-288 54,-294 54,-300 54,-300 54,-312 54,-312 54,-318 48,-324 42,-324"/>
<text text-anchor="middle" x="27" y="-303.5" font-family="sans" font-size="10.00">fastqc</text>
</g>
<!-- 17&#45;&gt;16 -->
<g id="edge26" class="edge">
<title>17&#45;&gt;16</title>
<path fill="none" stroke="grey" stroke-width="2" d="M54.71,-291.34C57.48,-290.15 60.28,-289.01 63,-288 114.27,-268.98 175.45,-253.24 214.75,-243.98"/>
<polygon fill="grey" stroke="grey" stroke-width="2" points="216.24,-246.76 225.19,-241.09 214.65,-239.94 216.24,-246.76"/>
</g>
<!-- 18&#45;&gt;6 -->
<g id="edge11" class="edge">
<title>18&#45;&gt;6</title>
<path fill="none" stroke="grey" stroke-width="2" d="M555.76,-143.15C536.97,-134.38 514.08,-123.71 493.93,-114.3"/>
<polygon fill="grey" stroke="grey" stroke-width="2" points="494.97,-110.99 484.43,-109.93 492.01,-117.33 494.97,-110.99"/>
</g>
<!-- 18&#45;&gt;19 -->
<g id="edge31" class="edge">
<title>18&#45;&gt;19</title>
<path fill="none" stroke="grey" stroke-width="2" d="M632.24,-143.15C651.03,-134.38 673.92,-123.71 694.07,-114.3"/>
<polygon fill="grey" stroke="grey" stroke-width="2" points="695.99,-117.33 703.57,-109.93 693.03,-110.99 695.99,-117.33"/>
</g>
<!-- 19&#45;&gt;0 -->
<g id="edge3" class="edge">
<title>19&#45;&gt;0</title>
<path fill="none" stroke="grey" stroke-width="2" d="M796.79,-75C847.16,-61.65 921.95,-41.82 967.69,-29.69"/>
<polygon fill="grey" stroke="grey" stroke-width="2" points="969.29,-32.35 978.06,-26.41 967.5,-25.59 969.29,-32.35"/>
</g>
<!-- 20&#45;&gt;19 -->
<g id="edge38" class="edge">
<title>20&#45;&gt;19</title>
<path fill="none" stroke="grey" stroke-width="2" d="M870.66,-143.15C848.97,-134.22 822.46,-123.31 799.31,-113.77"/>
<polygon fill="grey" stroke="grey" stroke-width="2" points="800.13,-110.51 789.55,-109.93 797.47,-116.98 800.13,-110.51"/>
</g>
</g>
</svg>
